<svg xmlns="http://www.w3.org/2000/svg" xmlns:xlink="http://www.w3.org/1999/xlink" width="480" height="456" viewBox="0 0 480 456"><defs><linearGradient id="a" x1="1.128" y1="0.988" x2="0.364" y2="1" gradientUnits="objectBoundingBox"><stop offset="0" stop-color="#e0e5ef" stop-opacity="0"/><stop offset="1" stop-color="#e0e5ef"/></linearGradient><linearGradient id="c" x1="-0.566" y1="0.5" x2="0.944" y2="0.771" gradientUnits="objectBoundingBox"><stop offset="0" stop-color="#fff" stop-opacity="0"/><stop offset="1" stop-color="#909aa9"/></linearGradient></defs><g transform="translate(0 -24)"><circle cx="184" cy="184" r="184" transform="translate(56 68)" fill="#f3f3fa"/><path d="M2920,292h0c-6.075,0-11-26.535-11-59.269s4.925-59.269,11-59.269c.026,0,8.121.387,12.89-6.2s6.188-11.924,6.188-20.142c0-28.2,10.094-48.237,19.422-52.117,2.688-.567,6.875.673,11-3.584s5.5-7.715,5.5-13.445C2975,47.061,2983.619,22,2994.25,22s19.25,25.062,19.25,55.976c0,5.73-.458,8.5,3.667,12.759s10.148,3.7,12.834,4.27c9.329,3.881,16.5,27.21,16.5,55.409a98.941,98.941,0,0,0,1.6,16.464s3.083,9.748,7.563,4.527,6.277-12.253,7.047-18.827c2.189-18.691,6.894-31.8,11.287-31.8,4.482,0,8.337,13.637,10.069,33.393.51,5.816,1.514,9.666,4.483,14.489s7.393,4.8,7.393,4.8H3096c4.46,0,8.3,13.507,10.049,33.18.346,3.889.676,6.259,3.643,9.489s8.227,3.429,8.227,3.429h.08c1.485,0,2.926,1.48,4.282,4.4a54.782,54.782,0,0,1,3.5,12c2.078,10.573,3.222,24.63,3.222,39.581,0,5.612-.163,11.151-.483,16.463H2920Zm208.516,0h0Z" transform="translate(-2852.515 76.334)" fill="url(#a)"/><path d="M117,208H.7c-.466-6.453-.7-13.181-.7-20,0-18.163,1.664-35.24,4.686-48.083a58.6,58.6,0,0,1,5.086-14.573C11.745,121.8,13.84,120,16,120l.116,0s7.651-.242,11.967-4.166,4.8-6.8,5.3-11.527C35.927,80.408,41.513,64,48,64a16.6,16.6,0,0,0,3.3-1.014A6.153,6.153,0,0,0,53.365,61.5c6.515-6.342,9.13-14.884,10.25-22.871C66.8,15.924,73.642,0,80.032,0,86.55,0,92.158,16.566,94.676,40.567c.742,7.065,2.2,11.742,6.521,17.6A14.3,14.3,0,0,0,111.951,64h.081c6.487,0,12.073,16.409,14.617,40.307.5,4.725.983,7.6,5.3,11.527S143.915,120,143.915,120l.116,0c2.16,0,4.255,1.8,6.228,5.344a58.6,58.6,0,0,1,5.086,14.573c3.022,12.844,4.686,29.921,4.686,48.083,0,6.818-.237,13.546-.7,20H117Zm42.328,0h0ZM.7,208h0Z" transform="translate(215.969 164)" fill="url(#a)"/><g transform="translate(-1760 63.19)" opacity="0.65"><path d="M395.676,66.185h5.813A37.112,37.112,0,0,0,400.805,72c0,2.394.257,8.064.627,10.772h-5.813a94.459,94.459,0,0,0,.741-10.9A52.725,52.725,0,0,0,395.676,66.185Zm0,18.209h5.813a37.111,37.111,0,0,0-.684,5.813c0,2.394.257,8.064.627,10.772h-5.813a94.463,94.463,0,0,0,.741-10.9A52.723,52.723,0,0,0,395.676,84.394Zm0,18.124h5.813a37.113,37.113,0,0,0-.684,5.813c0,2.394.257,8.064.627,10.772h-5.813a94.464,94.464,0,0,0,.741-10.9A52.725,52.725,0,0,0,395.676,102.518Zm-8.207,0h5.813a37.108,37.108,0,0,0-.684,5.813c0,2.394.257,8.064.627,10.772h-5.813a94.488,94.488,0,0,0,.741-10.9,52.739,52.739,0,0,0-.684-5.685ZM387.3,88.982h5.984a19.589,19.589,0,0,0-.684,4.175,50.871,50.871,0,0,0,.57,7.708h-5.642a74.975,74.975,0,0,0,.456-7.922A25.3,25.3,0,0,0,387.3,88.982Zm22.911,7.181s.741-4.56,4.046-6.383,6.9-4.047,6.9-4.047a14.183,14.183,0,0,1-4.616,7.808C412.489,97.189,410.209,96.163,410.209,96.163Zm-4.046,3.021a12.006,12.006,0,0,1,4.616-.855c1.881.228,7.181,2.451,7.694,2.679,0,0-4.731,2.337-9.176.684s-3.134-2.508-3.134-2.508Zm1.083-13.108s-1.539,6.155-1.71,7.637a5.9,5.9,0,0,0,1.881,4.274s2.28-1.2,1.938-4.73a17.507,17.507,0,0,0-2.109-7.181Z" transform="translate(1450.818 65.815)" fill="#909aa9"/><path d="M395.676,66.185h5.813A37.112,37.112,0,0,0,400.805,72c0,2.394.257,8.064.627,10.772h-5.813a94.459,94.459,0,0,0,.741-10.9A52.725,52.725,0,0,0,395.676,66.185Zm0,18.209h5.813a37.111,37.111,0,0,0-.684,5.813c0,2.394.257,8.064.627,10.772h-5.813a94.463,94.463,0,0,0,.741-10.9A52.723,52.723,0,0,0,395.676,84.394Zm0,18.124h5.813a37.113,37.113,0,0,0-.684,5.813c0,2.394.257,8.064.627,10.772h-5.813a94.464,94.464,0,0,0,.741-10.9A52.725,52.725,0,0,0,395.676,102.518Zm-8.207,0h5.813a37.108,37.108,0,0,0-.684,5.813c0,2.394.257,8.064.627,10.772h-5.813a94.488,94.488,0,0,0,.741-10.9,52.739,52.739,0,0,0-.684-5.685ZM387.3,88.982h5.984a19.589,19.589,0,0,0-.684,4.175,50.871,50.871,0,0,0,.57,7.708h-5.642a74.975,74.975,0,0,0,.456-7.922A25.3,25.3,0,0,0,387.3,88.982Zm22.911,7.181s.741-4.56,4.046-6.383,6.9-4.047,6.9-4.047a14.183,14.183,0,0,1-4.616,7.808C412.489,97.189,410.209,96.163,410.209,96.163Zm-4.046,3.021a12.006,12.006,0,0,1,4.616-.855c1.881.228,7.181,2.451,7.694,2.679,0,0-4.731,2.337-9.176.684s-3.134-2.508-3.134-2.508Zm1.083-13.108s-1.539,6.155-1.71,7.637a5.9,5.9,0,0,0,1.881,4.274s2.28-1.2,1.938-4.73a17.507,17.507,0,0,0-2.109-7.181Z" transform="translate(1450.818 120.319)" fill="#909aa9"/><path d="M395.676,66.185h5.813A37.112,37.112,0,0,0,400.805,72c0,2.394.257,8.064.627,10.772h-5.813a94.459,94.459,0,0,0,.741-10.9A52.725,52.725,0,0,0,395.676,66.185Zm0,18.209h5.813a37.111,37.111,0,0,0-.684,5.813c0,2.394.257,8.064.627,10.772h-5.813a94.463,94.463,0,0,0,.741-10.9A52.723,52.723,0,0,0,395.676,84.394Zm0,18.124h5.813a37.113,37.113,0,0,0-.684,5.813c0,2.394.257,8.064.627,10.772h-5.813a94.464,94.464,0,0,0,.741-10.9A52.725,52.725,0,0,0,395.676,102.518Zm-8.207,0h5.813a37.108,37.108,0,0,0-.684,5.813c0,2.394.257,8.064.627,10.772h-5.813a94.488,94.488,0,0,0,.741-10.9,52.739,52.739,0,0,0-.684-5.685ZM387.3,88.982h5.984a19.589,19.589,0,0,0-.684,4.175,50.871,50.871,0,0,0,.57,7.708h-5.642a74.975,74.975,0,0,0,.456-7.922A25.3,25.3,0,0,0,387.3,88.982Zm22.911,7.181s.741-4.56,4.046-6.383,6.9-4.047,6.9-4.047a14.183,14.183,0,0,1-4.616,7.808C412.489,97.189,410.209,96.163,410.209,96.163Zm-4.046,3.021a12.006,12.006,0,0,1,4.616-.855c1.881.228,7.181,2.451,7.694,2.679,0,0-4.731,2.337-9.176.684s-3.134-2.508-3.134-2.508Zm1.083-13.108s-1.539,6.155-1.71,7.637a5.9,5.9,0,0,0,1.881,4.274s2.28-1.2,1.938-4.73a17.507,17.507,0,0,0-2.109-7.181Z" transform="translate(1450.818 174.466)" fill="#909aa9"/><path d="M226.243,103.946l9.539-6.2.442.314-9.6,6.355ZM211.87,79.175s-.548-4.587-3.774-6.548-6.72-4.333-6.72-4.333a14.183,14.183,0,0,0,4.284,8c3.889,3.815,6.21,2.886,6.21,2.886Zm3.916,3.188a12.009,12.009,0,0,0-4.576-1.049c-1.889.149-7.278,2.146-7.8,2.352,0,0,4.628,2.534,9.139,1.07S215.785,82.364,215.785,82.364Zm-.53-13.142s1.278,6.215,1.387,7.7a5.9,5.9,0,0,1-2.059,4.191s-2.227-1.292-1.737-4.808A17.51,17.51,0,0,1,215.255,69.221Z" transform="translate(1625.701 63.831)" fill="#909aa9"/><path d="M93.583,251.743l-10.121-7.215-.454.295,10.215,7.326ZM75.949,265.767s-1.211-3.774-4.25-4.9-6.369-2.552-6.369-2.552a12.171,12.171,0,0,0,4.915,6.036c3.9,2.578,5.7,1.416,5.7,1.416Zm3.82,2.046a10.307,10.307,0,0,0-4.027-.136,41.677,41.677,0,0,0-6.187,3.256s4.313,1.378,7.874-.592S79.768,267.813,79.768,267.813Zm-2.594-10.985s2.092,5.027,2.427,6.262a5.062,5.062,0,0,1-1.05,3.867s-2.087-.724-2.249-3.767a15.026,15.026,0,0,1,.872-6.363Z" transform="translate(1753.67 -101.939)" fill="#758095"/><path d="M241.2,601.955l-9.705-4.424-.335.323,9.8,4.5Z" transform="translate(1597.682 -433.984)" fill="#909aa9"/><path d="M527.5,66.185h5.813a58.721,58.721,0,0,0-.684,7.347c0,3.025.257,10.192.627,13.613h-5.813s.8-7.784.741-13.775C528.166,71.074,527.5,66.185,527.5,66.185Z" transform="translate(1310.678 120.319)" fill="#909aa9"/><path d="M527.5,66.185h5.813a58.721,58.721,0,0,0-.684,7.347c0,3.025.257,10.192.627,13.613h-5.813s.8-7.784.741-13.775C528.166,71.074,527.5,66.185,527.5,66.185Z" transform="translate(1310.678 174.704)" fill="#909aa9"/></g><g transform="translate(44.8 -59.145) rotate(9)"><path d="M1.5,0c.828,0,6.214,4.6,6.214,5.429S2.328,3,1.5,3a1.5,1.5,0,0,1,0-3Z" transform="matrix(0.914, 0.407, -0.407, 0.914, 329.465, 183.672)" fill="#909aa9"/><path d="M.924,0c.511,0,3.83,2.835,3.83,3.345s-3.319-1.5-3.83-1.5A.924.924,0,0,1,.924,0Z" transform="translate(327.543 190.966) rotate(-21)" fill="#909aa9"/><path d="M-2600.714,1269s36.715,15.428,34.429-1.857-26.714,7.714,7.857,17" transform="translate(2955 -1062)" fill="none" stroke="#909aa9" stroke-width="1" stroke-dasharray="4"/><ellipse cx="0.5" cy="1.5" rx="0.5" ry="1.5" transform="translate(334 200)" fill="#909aa9"/><ellipse cx="0.5" cy="1.5" rx="0.5" ry="1.5" transform="translate(346 205)" fill="#909aa9"/><ellipse cx="12" cy="8" rx="12" ry="8" transform="matrix(0.966, 0.259, -0.259, 0.966, 334.781, 187.285)" fill="#fff"/><path d="M2916.12-980.2a9.513,9.513,0,0,0,4.88-8.3,9.516,9.516,0,0,0-1.169-4.571,14.933,14.933,0,0,1,2.072-.141,17.071,17.071,0,0,1,3.713.417A9.466,9.466,0,0,1,2928-986.5a9.5,9.5,0,0,1-6.683,9.075A16.172,16.172,0,0,1,2916.12-980.2Z" transform="translate(-2580 1183)" fill="#909aa9"/><path d="M2924.351-979.013v0A9.448,9.448,0,0,0,2928-986.5a9.479,9.479,0,0,0-1.407-4.978,12.326,12.326,0,0,1,1.369,1.328c1.8,2.045,2.483,4.309,1.931,6.374a6.307,6.307,0,0,1-3.21,3.83A10.408,10.408,0,0,1,2924.351-979.013Z" transform="translate(-2574 1185)" fill="#909aa9"/><ellipse cx="4" cy="6" rx="4" ry="6" transform="translate(338 180)" fill="#ebedf5"/><ellipse cx="5.5" cy="8" rx="5.5" ry="8" transform="translate(350.254 178.598) rotate(51)" fill="#ced1d5"/><ellipse cx="0.5" cy="1.5" rx="0.5" ry="1.5" transform="translate(349 202)" fill="#909aa9"/><ellipse cx="0.5" cy="1.5" rx="0.5" ry="1.5" transform="translate(340 200)" fill="#dae8e6"/></g><g transform="translate(322 263.987)" opacity="0.45"><path d="M387.469,102.518h5.813a37.108,37.108,0,0,0-.684,5.813c0,2.394.257,8.064.627,10.772h-5.813a94.488,94.488,0,0,0,.741-10.9,52.739,52.739,0,0,0-.684-5.685ZM387.3,88.982h5.984a19.589,19.589,0,0,0-.684,4.175,50.871,50.871,0,0,0,.57,7.708h-5.642a74.975,74.975,0,0,0,.456-7.922A25.3,25.3,0,0,0,387.3,88.982Z" transform="translate(-368.182 -88.982)" fill="#909aa9"/><path d="M395.676,66.185h5.813A37.112,37.112,0,0,0,400.805,72c0,2.394.257,8.064.627,10.772h-5.813a94.459,94.459,0,0,0,.741-10.9A52.725,52.725,0,0,0,395.676,66.185Zm0,18.209h5.813a37.111,37.111,0,0,0-.684,5.813c0,2.394.257,8.064.627,10.772h-5.813a94.463,94.463,0,0,0,.741-10.9A52.723,52.723,0,0,0,395.676,84.394Zm0,18.124h5.813a37.113,37.113,0,0,0-.684,5.813c0,2.394.257,8.064.627,10.772h-5.813a94.464,94.464,0,0,0,.741-10.9A52.725,52.725,0,0,0,395.676,102.518Zm-8.207,0h5.813a37.108,37.108,0,0,0-.684,5.813c0,2.394.257,8.064.627,10.772h-5.813a94.488,94.488,0,0,0,.741-10.9,52.739,52.739,0,0,0-.684-5.685ZM387.3,88.982h5.984a19.589,19.589,0,0,0-.684,4.175,50.871,50.871,0,0,0,.57,7.708h-5.642a74.975,74.975,0,0,0,.456-7.922A25.3,25.3,0,0,0,387.3,88.982Z" transform="translate(-368.182 -34.479)" fill="#909aa9"/><path d="M75.949,265.767s-1.211-3.774-4.25-4.9-6.369-2.552-6.369-2.552a12.171,12.171,0,0,0,4.915,6.036c3.9,2.578,5.7,1.416,5.7,1.416Zm3.82,2.046a10.307,10.307,0,0,0-4.027-.136,41.678,41.678,0,0,0-6.187,3.256s4.313,1.378,7.874-.592S79.768,267.813,79.768,267.813Zm-2.594-10.985s2.092,5.027,2.427,6.262a5.062,5.062,0,0,1-1.05,3.867s-2.087-.724-2.249-3.767a15.026,15.026,0,0,1,.872-6.363Z" transform="translate(-65.33 -256.737)" fill="#758095"/><path d="M527.5,66.185h5.813a58.721,58.721,0,0,0-.684,7.347c0,3.025.257,10.192.627,13.613h-5.813s.8-7.784.741-13.775C528.166,71.074,527.5,66.185,527.5,66.185Z" transform="translate(-508.322 -34.479)" fill="#909aa9"/><path d="M241.2,601.955l-9.705-4.424-.335.323,9.8,4.5Z" transform="translate(-221.318 -588.781)" fill="#909aa9"/></g><g transform="translate(185 234.987)" opacity="0.65"><path d="M393.111,102.518H387.3a37.108,37.108,0,0,1,.684,5.813c0,2.394-.257,8.064-.627,10.772h5.813a94.488,94.488,0,0,1-.741-10.9,52.739,52.739,0,0,1,.684-5.685Zm.171-13.536H387.3a19.589,19.589,0,0,1,.684,4.175,50.871,50.871,0,0,1-.57,7.708h5.642a74.975,74.975,0,0,1-.456-7.922A25.3,25.3,0,0,1,393.282,88.982Z" transform="translate(-379.091 -88.982)" fill="#909aa9"/><path d="M393.111,66.185H387.3A37.112,37.112,0,0,1,387.982,72c0,2.394-.257,8.064-.627,10.772h5.813a94.459,94.459,0,0,1-.741-10.9A52.725,52.725,0,0,1,393.111,66.185Zm0,18.209H387.3a37.111,37.111,0,0,1,.684,5.813c0,2.394-.257,8.064-.627,10.772h5.813a94.463,94.463,0,0,1-.741-10.9A52.723,52.723,0,0,1,393.111,84.394Zm0,18.124H387.3a37.113,37.113,0,0,1,.684,5.813c0,2.394-.257,8.064-.627,10.772h5.813a94.464,94.464,0,0,1-.741-10.9A52.725,52.725,0,0,1,393.111,102.518Zm8.207,0H395.5a37.108,37.108,0,0,1,.684,5.813c0,2.394-.257,8.064-.627,10.772h5.813a94.488,94.488,0,0,1-.741-10.9,52.739,52.739,0,0,1,.684-5.685Zm.171-13.536H395.5a19.589,19.589,0,0,1,.684,4.175,50.871,50.871,0,0,1-.57,7.708h5.642a74.975,74.975,0,0,1-.456-7.922A25.3,25.3,0,0,1,401.489,88.982Z" transform="translate(-387.298 -34.479)" fill="#909aa9"/><path d="M69.352,265.767s1.211-3.774,4.25-4.9,6.369-2.552,6.369-2.552a12.171,12.171,0,0,1-4.915,6.036c-3.9,2.578-5.7,1.416-5.7,1.416Zm-3.82,2.046a10.307,10.307,0,0,1,4.027-.136,41.677,41.677,0,0,1,6.187,3.256s-4.313,1.378-7.874-.592S65.532,267.813,65.532,267.813Zm2.594-10.985s-2.092,5.027-2.427,6.262a5.062,5.062,0,0,0,1.05,3.867s2.087-.724,2.249-3.767a15.026,15.026,0,0,0-.872-6.363Z" transform="translate(-46.663 -256.737)" fill="#758095"/><path d="M231.164,601.955l9.705-4.424.335.323-9.8,4.5Z" transform="translate(-217.742 -588.781)" fill="#909aa9"/><path d="M393.111,66.185H387.3A37.112,37.112,0,0,1,387.982,72c0,2.394-.257,8.064-.627,10.772h5.813a94.459,94.459,0,0,1-.741-10.9A52.725,52.725,0,0,1,393.111,66.185Zm0,18.209H387.3a37.111,37.111,0,0,1,.684,5.813c0,2.394-.257,8.064-.627,10.772h5.813a94.463,94.463,0,0,1-.741-10.9A52.723,52.723,0,0,1,393.111,84.394Zm0,18.124H387.3a37.113,37.113,0,0,1,.684,5.813c0,2.394-.257,8.064-.627,10.772h5.813a94.464,94.464,0,0,1-.741-10.9A52.725,52.725,0,0,1,393.111,102.518Zm8.207,0H395.5a37.108,37.108,0,0,1,.684,5.813c0,2.394-.257,8.064-.627,10.772h5.813a94.488,94.488,0,0,1-.741-10.9,52.739,52.739,0,0,1,.684-5.685Zm.171-13.536H395.5a19.589,19.589,0,0,1,.684,4.175,50.871,50.871,0,0,1-.57,7.708h5.642a74.975,74.975,0,0,1-.456-7.922A25.3,25.3,0,0,1,401.489,88.982Z" transform="translate(-387.298 19.669)" fill="#909aa9"/><path d="M533.26,66.185h-5.813a58.721,58.721,0,0,1,.684,7.347c0,3.025-.257,10.192-.627,13.613h5.813s-.8-7.784-.741-13.775C532.6,71.074,533.26,66.185,533.26,66.185Z" transform="translate(-519.135 -34.479)" fill="#909aa9"/><path d="M533.26,66.185h-5.813a58.721,58.721,0,0,1,.684,7.347c0,3.025-.257,10.192-.627,13.613h5.813s-.8-7.784-.741-13.775C532.6,71.074,533.26,66.185,533.26,66.185Z" transform="translate(-519.135 19.907)" fill="#909aa9"/></g><g transform="translate(2998 -1388)"><path d="M395.676,66.185h5.813A37.112,37.112,0,0,0,400.805,72c0,2.394.257,8.064.627,10.772h-5.813a94.459,94.459,0,0,0,.741-10.9A52.725,52.725,0,0,0,395.676,66.185Zm0,18.209h5.813a37.111,37.111,0,0,0-.684,5.813c0,2.394.257,8.064.627,10.772h-5.813a94.463,94.463,0,0,0,.741-10.9A52.723,52.723,0,0,0,395.676,84.394Zm0,18.124h5.813a37.113,37.113,0,0,0-.684,5.813c0,2.394.257,8.064.627,10.772h-5.813a94.464,94.464,0,0,0,.741-10.9A52.725,52.725,0,0,0,395.676,102.518Zm-8.207,0h5.813a37.108,37.108,0,0,0-.684,5.813c0,2.394.257,8.064.627,10.772h-5.813a94.488,94.488,0,0,0,.741-10.9,52.739,52.739,0,0,0-.684-5.685ZM387.3,88.982h5.984a19.589,19.589,0,0,0-.684,4.175,50.871,50.871,0,0,0,.57,7.708h-5.642a74.975,74.975,0,0,0,.456-7.922A25.3,25.3,0,0,0,387.3,88.982Zm22.911,7.181s.741-4.56,4.046-6.383,6.9-4.047,6.9-4.047a14.183,14.183,0,0,1-4.616,7.808C412.489,97.189,410.209,96.163,410.209,96.163Zm-4.046,3.021a12.006,12.006,0,0,1,4.616-.855c1.881.228,7.181,2.451,7.694,2.679,0,0-4.731,2.337-9.176.684s-3.134-2.508-3.134-2.508Zm1.083-13.108s-1.539,6.155-1.71,7.637a5.9,5.9,0,0,0,1.881,4.274s2.28-1.2,1.938-4.73a17.507,17.507,0,0,0-2.109-7.181Z" transform="translate(-3225.182 1457.005)" fill="#909aa9"/><path d="M395.676,66.185h5.813A37.112,37.112,0,0,0,400.805,72c0,2.394.257,8.064.627,10.772h-5.813a94.459,94.459,0,0,0,.741-10.9A52.725,52.725,0,0,0,395.676,66.185Zm0,18.209h5.813a37.111,37.111,0,0,0-.684,5.813c0,2.394.257,8.064.627,10.772h-5.813a94.463,94.463,0,0,0,.741-10.9A52.723,52.723,0,0,0,395.676,84.394Zm0,18.124h5.813a37.113,37.113,0,0,0-.684,5.813c0,2.394.257,8.064.627,10.772h-5.813a94.464,94.464,0,0,0,.741-10.9A52.725,52.725,0,0,0,395.676,102.518Zm-8.207,0h5.813a37.108,37.108,0,0,0-.684,5.813c0,2.394.257,8.064.627,10.772h-5.813a94.488,94.488,0,0,0,.741-10.9,52.739,52.739,0,0,0-.684-5.685ZM387.3,88.982h5.984a19.589,19.589,0,0,0-.684,4.175,50.871,50.871,0,0,0,.57,7.708h-5.642a74.975,74.975,0,0,0,.456-7.922A25.3,25.3,0,0,0,387.3,88.982Zm22.911,7.181s.741-4.56,4.046-6.383,6.9-4.047,6.9-4.047a14.183,14.183,0,0,1-4.616,7.808C412.489,97.189,410.209,96.163,410.209,96.163Zm-4.046,3.021a12.006,12.006,0,0,1,4.616-.855c1.881.228,7.181,2.451,7.694,2.679,0,0-4.731,2.337-9.176.684s-3.134-2.508-3.134-2.508Zm1.083-13.108s-1.539,6.155-1.71,7.637a5.9,5.9,0,0,0,1.881,4.274s2.28-1.2,1.938-4.73a17.507,17.507,0,0,0-2.109-7.181Z" transform="translate(-3225.182 1511.509)" fill="#909aa9"/><path d="M226.243,103.946l9.539-6.2.442.314-9.6,6.355ZM211.87,79.175s-.548-4.587-3.774-6.548-6.72-4.333-6.72-4.333a14.183,14.183,0,0,0,4.284,8c3.889,3.815,6.21,2.886,6.21,2.886Zm3.916,3.188a12.009,12.009,0,0,0-4.576-1.049c-1.889.149-7.278,2.146-7.8,2.352,0,0,4.628,2.534,9.139,1.07S215.785,82.364,215.785,82.364Zm-.53-13.142s1.278,6.215,1.387,7.7a5.9,5.9,0,0,1-2.059,4.191s-2.227-1.292-1.737-4.808A17.51,17.51,0,0,1,215.255,69.221Z" transform="translate(-3050.299 1455.021)" fill="#909aa9"/><path d="M93.583,251.743l-10.121-7.215-.454.295,10.215,7.326ZM75.949,265.767s-1.211-3.774-4.25-4.9-6.369-2.552-6.369-2.552a12.171,12.171,0,0,0,4.915,6.036c3.9,2.578,5.7,1.416,5.7,1.416Zm3.82,2.046a10.307,10.307,0,0,0-4.027-.136,41.677,41.677,0,0,0-6.187,3.256s4.313,1.378,7.874-.592S79.768,267.813,79.768,267.813Zm-2.594-10.985s2.092,5.027,2.427,6.262a5.062,5.062,0,0,1-1.05,3.867s-2.087-.724-2.249-3.767a15.026,15.026,0,0,1,.872-6.363Z" transform="translate(-2922.33 1289.25)" fill="#909aa9"/><path d="M241.2,601.955l-9.705-4.424-.335.323,9.8,4.5Z" transform="translate(-3078.318 957.206)" fill="#909aa9"/><path d="M527.5,66.185h5.813a58.721,58.721,0,0,0-.684,7.347c0,3.025.257,10.192.627,13.613h-5.813s.8-7.784.741-13.775C528.166,71.074,527.5,66.185,527.5,66.185Z" transform="translate(-3365.322 1511.509)" fill="#909aa9"/><path d="M395.676,66.185h5.813A37.112,37.112,0,0,0,400.805,72c0,2.394.257,8.064.627,10.772h-5.813a94.459,94.459,0,0,0,.741-10.9A52.725,52.725,0,0,0,395.676,66.185Zm0,18.209h5.813a37.111,37.111,0,0,0-.684,5.813c0,2.394.257,8.064.627,10.772h-5.813a94.463,94.463,0,0,0,.741-10.9A52.723,52.723,0,0,0,395.676,84.394Zm0,18.124h5.813a37.113,37.113,0,0,0-.684,5.813c0,2.394.257,8.064.627,10.772h-5.813a94.464,94.464,0,0,0,.741-10.9A52.725,52.725,0,0,0,395.676,102.518Zm-8.207,0h5.813a37.108,37.108,0,0,0-.684,5.813c0,2.394.257,8.064.627,10.772h-5.813a94.488,94.488,0,0,0,.741-10.9,52.739,52.739,0,0,0-.684-5.685ZM387.3,88.982h5.984a19.589,19.589,0,0,0-.684,4.175,50.871,50.871,0,0,0,.57,7.708h-5.642a74.975,74.975,0,0,0,.456-7.922A25.3,25.3,0,0,0,387.3,88.982Z" transform="translate(-3225.182 1565.656)" fill="#909aa9"/><path d="M527.5,66.185h5.813a58.721,58.721,0,0,0-.684,7.347c0,3.025.257,10.192.627,13.613h-5.813s.8-7.784.741-13.775C528.166,71.074,527.5,66.185,527.5,66.185Z" transform="translate(-3365.322 1565.894)" fill="#909aa9"/><g transform="translate(0 55)"><path d="M395.676,66.185h5.813A37.112,37.112,0,0,0,400.805,72c0,2.394.257,8.064.627,10.772h-5.813a94.459,94.459,0,0,0,.741-10.9A52.725,52.725,0,0,0,395.676,66.185Zm0,18.209h5.813a37.111,37.111,0,0,0-.684,5.813c0,2.394.257,8.064.627,10.772h-5.813a94.463,94.463,0,0,0,.741-10.9A52.723,52.723,0,0,0,395.676,84.394Zm0,18.124h5.813a37.113,37.113,0,0,0-.684,5.813c0,2.394.257,8.064.627,10.772h-5.813a94.464,94.464,0,0,0,.741-10.9A52.725,52.725,0,0,0,395.676,102.518Zm-8.207,0h5.813a37.108,37.108,0,0,0-.684,5.813c0,2.394.257,8.064.627,10.772h-5.813a94.488,94.488,0,0,0,.741-10.9,52.739,52.739,0,0,0-.684-5.685ZM387.3,88.982h5.984a19.589,19.589,0,0,0-.684,4.175,50.871,50.871,0,0,0,.57,7.708h-5.642a74.975,74.975,0,0,0,.456-7.922A25.3,25.3,0,0,0,387.3,88.982Z" transform="translate(-3225.182 1565.656)" fill="#909aa9"/><path d="M527.5,66.185h5.813a58.721,58.721,0,0,0-.684,7.347c0,3.025.257,10.192.627,13.613h-5.813s.8-7.784.741-13.775C528.166,71.074,527.5,66.185,527.5,66.185Z" transform="translate(-3365.322 1565.894)" fill="#909aa9"/></g></g><path d="M2989,62c-10.838-4.087-16.3,0-32,0-26.51,0-48-8.954-48-20s21.49-20,48-20h286c8.836,0-14,7.164-14,16s-5.914,13.75-14.75,13.75c0,0-16.75,2.251-28.75,5.251S3165,68.714,3165,68.714,3127.392,110,3081,110c-38.041,0-70.176-13.246-80.647-31.653C2998.219,74.6,2999.838,66.087,2989,62Z" transform="translate(-2841 324)" fill="#d1d6e2"/><ellipse cx="49" cy="12" rx="49" ry="12" transform="translate(66 350)" opacity="0.15" fill="url(#c)"/><ellipse cx="61" cy="7.5" rx="61" ry="7.5" transform="translate(218 346)" fill="#c8cede"/><ellipse cx="74" cy="8" rx="74" ry="8" transform="translate(276 363)" fill="#d1d6e2"/><ellipse cx="100" cy="10" rx="100" ry="10" transform="translate(176 351)" fill="#c0c9db"/><ellipse cx="39.5" cy="11" rx="39.5" ry="11" transform="translate(289 363)" fill="#c8cede"/></g></svg>