<svg width="32" height="32" viewBox="0 0 200 200" xmlns="http://www.w3.org/2000/svg">
 <defs>
  <linearGradient y2="0.730344" x2="0.015762" y1="0.2927" x1="0.931114" id="XMLID_2_">
   <stop stop-color="#FF0033" offset="0"/>
   <stop stop-color="#FC0033" offset="0.4584"/>
   <stop stop-color="#FE5D4C" offset="0.7668"/>
   <stop stop-color="#F2934E" offset="0.9794"/>
  </linearGradient>
  <linearGradient y2="0.499811" x2="1.000016" y1="0.499811" x1="-0.000015" id="XMLID_3_">
   <stop stop-color="#F2934E" offset="0"/>
   <stop stop-color="#FE4B49" offset="1"/>
  </linearGradient>
  <radialGradient gradientUnits="userSpaceOnUse" gradientTransform="matrix(-0.1121935173869133,0,0,-0.11706577986478806,-176.50047302246094,9.927238464355469)" r="914.3985" cy="-791.6146" cx="-2458.5977" id="XMLID_4_">
   <stop stop-color="#660033" offset="0.04041"/>
   <stop stop-color="#FF0033" offset="0.8516"/>
   <stop stop-color="#FF0335" offset="0.8825"/>
   <stop stop-color="#FF0B3C" offset="0.901"/>
   <stop stop-color="#FF1947" offset="0.9163"/>
   <stop stop-color="#FF2E57" offset="0.9299"/>
   <stop stop-color="#FF486D" offset="0.9423"/>
   <stop stop-color="#FF6886" offset="0.9538"/>
   <stop stop-color="#FF8FA5" offset="0.9647"/>
   <stop stop-color="#FFBBC9" offset="0.975"/>
   <stop stop-color="#FFEDF0" offset="0.9846"/>
   <stop stop-color="#FFFFFF" offset="0.9879"/>
  </radialGradient>
 </defs>
 <g>
  <title>background</title>
  <rect fill="none" id="canvas_background" height="402" width="582" y="-1" x="-1"/>
 </g>
 <g>
  <title>Layer 1</title>
  <g id="XMLID_7_">
   <path d="m113.758202,53.180355" fill="#FF82BA" id="XMLID_8_"/>
   <path d="m45.08672,113.558105c0,6.634941 0.663479,12.606346 2.322216,18.57782c0.663509,0.663513 1.65873,1.658752 2.322231,2.32225c-0.663502,-0.663498 -1.658722,-1.658737 -2.322231,-2.32225c6.634933,24.880997 26.208,44.785736 51.088959,51.752441c6.634895,1.658752 13.269829,2.653946 19.904778,2.653946c24.217384,0 46.112572,-11.279327 59.714165,-29.193604l-0.331726,-0.331787l0.331726,0.331787c10.61586,-15.592133 17.250793,-34.833427 17.250793,-55.401718c0.331741,-52.747578 -42.131744,-95.542834 -94.547539,-96.869816c33.506233,0.663482 61.372948,23.885689 69.334877,54.738121c1.658752,6.303165 2.322205,11.942837 2.322205,18.577724c0,20.568253 -8.957123,40.141289 -22.890503,53.411163c-13.269836,11.942871 -31.183998,19.904816 -50.757019,19.904816c-4.312706,0 -7.961922,-0.331757 -11.611145,-0.663483c3.649223,0.331726 6.96666,0.663483 10.615913,0.663483l0,0c-27.203186,-0.331757 -49.430229,-22.89061 -49.430229,-50.425476c0,-8.625404 1.990452,-16.255562 5.971397,-23.885742l-0.663475,0.331764c-5.971428,11.27935 -8.625393,22.890465 -8.625393,35.82856z" fill="url(#XMLID_2_)" id="XMLID_82_"/>
   <path d="m4.945461,100.62001c0,17.582565 4.976202,34.501648 13.269846,48.766769l0,0c-6.634921,-10.947632 -10.284128,-23.885818 -10.284128,-37.487396c0,-20.568245 8.957147,-40.141251 22.890474,-53.411076c13.269812,-11.94286 31.184149,-19.904785 50.757196,-19.904785c6.96666,0 13.933311,0.663479 19.904755,2.653996c15.923813,4.644428 29.525276,14.596794 39.809441,27.866623l0,0c7.298416,8.625404 10.947601,19.904755 10.947601,32.511124c0,27.866653 -22.890442,50.425461 -50.757042,50.093735c19.573029,0.331726 37.48716,-7.630188 51.088829,-19.573074c14.596756,-13.601616 22.890442,-32.511139 22.890442,-53.411156c0,-6.634911 -0.663483,-12.606308 -2.322205,-18.577732c-8.293655,-30.852415 -35.828613,-54.406381 -69.334854,-55.069862c-0.663475,0 -1.326988,0 -1.990463,0s-1.327003,0 -1.990494,0c-52.74765,-0.331752 -94.879398,42.79525 -94.879398,95.542835z" fill="url(#XMLID_3_)" id="XMLID_67_"/>
   <path d="m16.556606,146.732788l0,0c16.91901,28.861923 48.434925,48.766678 83.931744,48.766678c33.174446,0 62.036446,-14.596817 78.623756,-39.809494l0,0c-14.596863,19.573013 -33.174606,27.534882 -58.718987,27.534882c-6.96666,0 -13.933319,-0.663513 -19.90477,-2.653946c-24.880951,-6.966705 -44.454025,-26.871445 -51.088924,-51.752518c-1.658741,-6.303108 -2.322216,-11.942818 -2.322216,-18.577721c0,-12.606346 2.985714,-24.880989 8.957115,-35.496834c0,0.331757 -0.331722,0.331757 -0.331722,0.66349l0,0c8.625431,-15.923794 25.876247,-26.539673 44.785748,-26.539673c15.592079,0 28.861855,7.961914 39.145943,18.577759l0,0c-9.288895,-13.269833 -22.890358,-24.217422 -39.477676,-28.530132c-6.634933,-1.65873 -13.269829,-2.653969 -19.904762,-2.653969c-19.573082,0 -37.15559,7.961895 -50.757183,19.904781c-14.596812,13.601555 -23.553975,32.842804 -23.553975,53.411102c0.663498,13.269836 3.980967,26.539719 10.61591,37.155594z" fill="url(#XMLID_4_)" id="XMLID_38_"/>
  </g>
 </g>
</svg>